HIERARCHY
ROOT joint_Root
{
	OFFSET 0.0 0.0 0.0
	CHANNELS 6 Xposition Yposition Zposition Zrotation Xrotation Yrotation 
	JOINT Hips
	{
		OFFSET -17.1583 93.1646 452.98
		CHANNELS 6 Xposition Yposition Zposition Zrotation Xrotation Yrotation 
		JOINT Spine
		{
			OFFSET 15.7357 0.0 0.0
			CHANNELS 6 Xposition Yposition Zposition Zrotation Xrotation Yrotation 
			JOINT Chest
			{
				OFFSET 8.98455 -0.406207 0.0
				CHANNELS 6 Xposition Yposition Zposition Zrotation Xrotation Yrotation 
				JOINT Neck
				{
					OFFSET 16.3773 0.0 0.0
					CHANNELS 6 Xposition Yposition Zposition Zrotation Xrotation Yrotation 
					JOINT Head
					{
						OFFSET 6.45672 0.0 0.0
						CHANNELS 6 Xposition Yposition Zposition Zrotation Xrotation Yrotation 
						End Site
						{
							OFFSET 0.0 0.0 0.0
						}
					}
				}
				JOINT Shoulder_L
				{
					OFFSET 12.9942 -0.242716 4.98039
					CHANNELS 6 Xposition Yposition Zposition Zrotation Xrotation Yrotation 
					JOINT UpperArm_L
					{
						OFFSET 5.34809 0.0 0.0
						CHANNELS 6 Xposition Yposition Zposition Zrotation Xrotation Yrotation 
						JOINT LowerArm_L
						{
							OFFSET 24.3286 1.87007e-05 0.0
							CHANNELS 6 Xposition Yposition Zposition Zrotation Xrotation Yrotation 
							JOINT Hand_L
							{
								OFFSET 22.2916 0.0 0.0
								CHANNELS 6 Xposition Yposition Zposition Zrotation Xrotation Yrotation 
								End Site
								{
									OFFSET 0.0 0.0 0.0
								}
							}
						}
					}
				}
				JOINT Shoulder_R
				{
					OFFSET 12.9945 -0.242716 -4.98039
					CHANNELS 6 Xposition Yposition Zposition Zrotation Xrotation Yrotation 
					JOINT UpperArm_R
					{
						OFFSET -5.34813 0.0 0.0
						CHANNELS 6 Xposition Yposition Zposition Zrotation Xrotation Yrotation 
						JOINT LowerArm_R
						{
							OFFSET -24.3289 0.000322201 0.0
							CHANNELS 6 Xposition Yposition Zposition Zrotation Xrotation Yrotation 
							JOINT Hand_R
							{
								OFFSET -22.2915 -0.000108084 0.0
								CHANNELS 6 Xposition Yposition Zposition Zrotation Xrotation Yrotation 
								End Site
								{
									OFFSET 0.0 0.0 0.0
								}
							}
						}
					}
				}
			}
		}
		JOINT UpperLeg_L
		{
			OFFSET -2.19248 -6.46944 0.0
			CHANNELS 6 Xposition Yposition Zposition Zrotation Xrotation Yrotation 
			JOINT LowerLeg_L
			{
				OFFSET 39.0811 0.0 -1.23785e-05
				CHANNELS 6 Xposition Yposition Zposition Zrotation Xrotation Yrotation 
				JOINT Foot_L
				{
					OFFSET 40.9854 0.0 -1.26872e-05
					CHANNELS 6 Xposition Yposition Zposition Zrotation Xrotation Yrotation 
					JOINT Toes_L
					{
						OFFSET 11.7543 0.0 0.0
						CHANNELS 6 Xposition Yposition Zposition Zrotation Xrotation Yrotation 
						End Site
						{
							OFFSET 0.0 0.0 0.0
						}
					}
				}
			}
		}
		JOINT UpperLeg_R
		{
			OFFSET -2.19251 6.46944 0.0
			CHANNELS 6 Xposition Yposition Zposition Zrotation Xrotation Yrotation 
			JOINT LowerLeg_R
			{
				OFFSET -39.0811 -0.00228153 -0.0401928
				CHANNELS 6 Xposition Yposition Zposition Zrotation Xrotation Yrotation 
				JOINT Foot_R
				{
					OFFSET -40.9854 0.0 0.0
					CHANNELS 6 Xposition Yposition Zposition Zrotation Xrotation Yrotation 
					JOINT Toes_R
					{
						OFFSET -11.7543 0.0 0.0
						CHANNELS 6 Xposition Yposition Zposition Zrotation Xrotation Yrotation 
						End Site
						{
							OFFSET 0.0 0.0 0.0
						}
					}
				}
			}
		}
	}
}
MOTION
Frames:	6
Frame Time:	0.0333333
0.000000 0.000000 0.000000 0.000000 0.000000 -0.000000 -2.049400 92.959600 0.051769 87.618400 1.345550 2.942800 15.735700 0.000005 -0.000001 74.368400 85.925700 -72.132500 8.984550 -0.406207 -0.000000 0.131452 -2.343950 4.472200 16.377300 -0.000001 -0.000001 5.306210 2.730320 -3.430170 6.456720 -0.000001 -0.000000 -11.515100 3.116790 -2.367730 12.994200 -0.242716 4.980390 -93.251300 9.431400 -70.880600 5.348090 -0.000007 -0.000001 -72.068000 20.770300 0.646935 24.328600 0.000019 0.000005 12.382100 27.870900 -25.155400 22.291600 -0.000001 0.000005 -5.393200 5.129490 4.429310 12.994500 -0.242716 -4.980390 87.610800 6.331550 -69.276500 -5.348130 -0.000001 -0.000004 -64.490900 27.060800 -5.644770 -24.328900 0.000322 -0.000009 0.853832 2.484980 -18.991200 -22.291500 -0.000108 -0.000004 -8.270450 5.259570 1.182980 -2.192480 -6.469440 -0.000000 -171.385000 -12.502700 0.067256 39.081100 -0.000007 -0.000012 0.007905 -0.025288 17.358800 40.985400 -0.000006 -0.000013 -0.837139 16.675900 -68.903800 11.754300 -0.000000 0.000003 -0.000943 0.182215 -9.185340 -2.192510 6.469440 -0.000001 177.790000 11.923900 -177.487000 -39.081100 -0.002282 -0.040193 0.021878 -0.075008 13.887900 -40.985400 0.000008 0.000006 -4.481730 9.857190 -68.365600 -11.754300 -0.000006 -0.000006 -0.009541 0.267843 -5.692580
0.000000 0.000000 0.000000 0.000000 0.000000 -0.000000 -1.938250 93.055600 0.183532 87.642200 1.843000 2.114920 15.735700 0.000005 -0.000001 68.665900 86.085400 -66.406500 8.984550 -0.406207 -0.000000 -0.409533 -3.008770 4.506400 16.377300 -0.000001 -0.000001 4.199680 2.820490 -4.111700 6.456720 -0.000001 -0.000000 -12.180300 3.681740 -3.770890 12.994200 -0.242716 4.980390 -93.325000 9.705940 -70.985800 5.348090 -0.000007 -0.000001 -71.257400 18.293200 1.605320 24.328600 0.000019 0.000005 12.727300 27.936700 -25.738400 22.291600 -0.000001 0.000005 -5.785470 5.142800 4.113830 12.994500 -0.242716 -4.980390 87.502000 6.455650 -68.793200 -5.348130 -0.000001 -0.000004 -62.421700 22.764600 -5.963050 -24.328900 0.000322 -0.000009 0.670333 2.021520 -18.368300 -22.291500 -0.000108 -0.000004 -11.197400 5.254370 1.317090 -2.192480 -6.469440 -0.000000 -171.565000 -13.022900 -0.322128 39.081100 -0.000007 -0.000012 0.013515 -0.045573 16.518600 40.985400 -0.000006 -0.000013 -0.766260 17.519700 -68.805500 11.754300 -0.000000 0.000003 -0.000960 0.182461 -9.175320 -2.192510 6.469440 -0.000001 177.585000 13.082000 -177.585000 -39.081100 -0.002282 -0.040193 0.008139 -0.021412 12.646700 -40.985400 0.000008 0.000006 -5.702240 10.652200 -67.228400 -11.754300 -0.000006 -0.000006 -0.009581 0.268151 -5.679980
0.000000 0.000000 0.000000 0.000000 0.000000 -0.000000 -1.881180 93.193600 0.331978 87.685000 2.472370 1.029170 15.735700 0.000005 -0.000001 62.052700 86.309400 -59.958600 8.984550 -0.406207 -0.000000 -1.176260 -3.621900 4.150650 16.377300 -0.000001 -0.000001 2.841490 2.761830 -4.575990 6.456720 -0.000001 -0.000000 -12.823800 4.194420 -5.092420 12.994200 -0.242716 4.980390 -93.369900 9.912590 -71.116600 5.348090 -0.000007 -0.000001 -69.724100 16.403000 2.248560 24.328600 0.000019 0.000005 12.774700 27.788700 -25.934800 22.291600 -0.000001 0.000005 -5.993540 5.153150 3.867820 12.994500 -0.242716 -4.980390 87.505400 6.292560 -68.323000 -5.348130 -0.000001 -0.000004 -60.148500 16.629100 -6.568720 -24.328900 0.000322 -0.000009 0.121624 0.422894 -16.104800 -22.291500 -0.000108 -0.000004 -14.134300 5.237010 1.779860 -2.192480 -6.469440 -0.000000 -171.717000 -14.072200 -0.710806 39.081100 -0.000007 -0.000012 0.015655 -0.057794 15.157100 40.985400 -0.000006 -0.000013 -0.753492 19.039700 -68.541700 11.754300 -0.000000 0.000003 -0.001367 0.188120 -8.945320 -2.192510 6.469440 -0.000001 177.538000 13.830500 -177.552000 -39.081100 -0.002282 -0.040193 -0.002035 0.028751 10.584300 -40.985400 0.000008 0.000006 -7.245000 10.832100 -65.516700 -11.754300 -0.000006 -0.000006 -0.009435 0.267030 -5.725810
0.000000 0.000000 0.000000 0.000000 0.000000 -0.000000 -1.868990 93.407400 0.410862 87.806600 3.012970 -0.321981 15.735700 0.000005 -0.000001 56.094800 86.674900 -54.434000 8.984550 -0.406207 -0.000000 -2.190470 -3.852790 3.248430 16.377300 -0.000001 -0.000001 1.347770 2.504380 -4.939880 6.456720 -0.000001 -0.000000 -13.327700 4.136890 -6.220000 12.994200 -0.242716 4.980390 -93.273900 9.757970 -71.350000 5.348090 -0.000007 -0.000001 -67.789000 14.342100 2.573820 24.328600 0.000019 0.000005 13.302900 28.438200 -26.404700 22.291600 -0.000001 0.000005 -6.358000 5.156510 3.787080 12.994500 -0.242716 -4.980390 87.612000 5.930770 -68.021200 -5.348130 -0.000001 -0.000004 -57.635700 7.909300 -6.919520 -24.328900 0.000322 -0.000009 -0.401867 -1.818380 -12.486700 -22.291500 -0.000108 -0.000004 -15.037600 5.218550 2.249240 -2.192480 -6.469440 -0.000000 -172.015000 -15.197300 -0.846800 39.081100 -0.000007 -0.000012 0.013555 -0.060197 12.690800 40.985400 -0.000006 -0.000013 -1.238830 20.622400 -67.544600 11.754300 -0.000000 0.000003 -0.001052 0.183768 -9.122220 -2.192510 6.469440 -0.000001 177.428000 14.558300 -176.975000 -39.081100 -0.002282 -0.040193 -0.000453 0.031907 6.786730 -40.985400 0.000008 0.000006 -9.892000 11.096700 -62.635900 -11.754300 -0.000006 -0.000006 -0.009424 0.266947 -5.729190
0.000000 0.000000 0.000000 0.000000 0.000000 -0.000000 -1.889320 93.703900 0.431455 88.066000 3.348100 -1.760890 15.735700 0.000005 -0.000001 50.823500 87.140600 -49.867200 8.984550 -0.406207 -0.000000 -3.304450 -3.703190 1.806690 16.377300 -0.000001 -0.000001 -0.260706 2.151580 -5.367220 6.456720 -0.000001 -0.000000 -13.622100 3.594320 -7.571690 12.994200 -0.242716 4.980390 -93.194900 9.510280 -71.333000 5.348090 -0.000007 -0.000001 -65.230100 11.613400 2.692230 24.328600 0.000019 0.000005 14.121600 29.116600 -27.340500 22.291600 -0.000001 0.000005 -6.557330 5.161000 3.678340 12.994500 -0.242716 -4.980390 87.925800 5.151880 -68.034700 -5.348130 -0.000001 -0.000004 -54.611800 -1.930680 -6.939530 -24.328900 0.000322 -0.000009 -0.667754 -4.910930 -7.752770 -22.291500 -0.000108 -0.000004 -13.561900 5.192450 2.907210 -2.192480 -6.469440 -0.000000 -171.991000 -15.825300 -0.725467 39.081100 -0.000007 -0.000012 -0.020534 0.130979 8.909630 40.985400 -0.000006 -0.000013 -7.712860 22.220500 -61.958300 11.754300 -0.000000 0.000003 -0.000558 0.176539 -9.415950 -2.192510 6.469440 -0.000001 177.503000 15.427900 -177.891000 -39.081100 -0.002282 -0.040193 0.003343 0.000036 5.538960 -40.985400 0.000008 0.000006 -10.205400 11.461500 -61.081800 -11.754300 -0.000006 -0.000006 -0.008815 0.262230 -5.922020
0.000000 0.000000 0.000000 0.000000 0.000000 -0.000000 -2.024930 94.037800 0.433723 87.962800 3.491500 -2.917520 15.735700 0.000005 -0.000001 48.278200 87.564800 -48.116600 8.984550 -0.406207 -0.000000 -4.129670 -3.255740 0.205933 16.377300 -0.000001 -0.000001 -1.955600 1.734620 -5.985700 6.456720 -0.000001 -0.000000 -13.921400 2.667960 -8.810610 12.994200 -0.242716 4.980390 -93.042600 9.027000 -71.285200 5.348090 -0.000007 -0.000001 -62.548500 8.169170 2.593500 24.328600 0.000019 0.000005 13.996000 28.030300 -27.941600 22.291600 -0.000001 0.000005 -5.550930 5.144990 4.061100 12.994500 -0.242716 -4.980390 88.396100 4.065150 -68.448100 -5.348130 -0.000001 -0.000004 -50.646600 -12.562000 -6.309340 -24.328900 0.000322 -0.000009 -0.359642 -7.353150 -2.811240 -22.291500 -0.000108 -0.000004 -11.483700 5.183460 3.128270 -2.192480 -6.469440 -0.000000 -171.709000 -16.196300 2.343720 39.081100 -0.000007 -0.000012 -0.000001 -0.110656 0.000004 40.985400 -0.000006 -0.000013 -13.644300 22.153400 -54.319400 11.754300 -0.000000 0.000003 0.000242 0.163447 -9.947690 -2.192510 6.469440 -0.000001 177.971000 16.675000 -178.950000 -39.081100 -0.002282 -0.040193 0.005766 -0.028133 4.912890 -40.985400 0.000008 0.000006 -10.484300 12.328500 -59.245800 -11.754300 -0.000006 -0.000006 -0.007831 0.254319 -6.245190
